<?xml version="1.0" encoding="utf-8"?>
<!-- Generator: Adobe Illustrator 26.0.3, SVG Export Plug-In . SVG Version: 6.00 Build 0)  -->
<svg version="1.1" id="Ebene_1" xmlns="http://www.w3.org/2000/svg" xmlns:xlink="http://www.w3.org/1999/xlink" x="0px" y="0px"
	 viewBox="0 0 100 100" style="enable-background:new 0 0 100 100;" xml:space="preserve">
<style type="text/css">
	.st0{fill:#808E9F;}
	.st1{clip-path:url(#SVGID_00000121238997107077926460000004676036157254810805_);}
	.st2{enable-background:new    ;}
	.st3{fill:#BBA989;}
	.st4{fill:#EF7D00;}
	.st5{fill:#238A4A;}
	.st6{fill:#313393;}
	.st7{fill:#9AC130;}
	.st8{fill:#0093DE;}
	.st9{fill:#9E1981;}
	.st10{fill:#A3AAA0;}
	.st11{fill:#E8E100;}
	.st12{fill:#689C89;}
	.st13{fill:#BFC6CF;}
	.st14{fill:#FFFFFF;}
</style>
<path id="ic_call_24px" class="st0" d="M20.11,43.28c8.05,15.75,20.86,28.56,36.61,36.61l12.22-12.24c1.48-1.48,3.68-2,5.66-1.34
	c6.4,2.1,13.1,3.17,19.84,3.16c3.06,0.01,5.54,2.49,5.55,5.55v19.41c-0.01,3.06-2.49,5.54-5.55,5.55C42.29,100.01,0.01,57.73,0,5.57
	c0-0.01,0-0.01,0-0.02C0.01,2.49,2.49,0.01,5.55,0H25c3.06,0.01,5.54,2.49,5.55,5.55c-0.01,6.74,1.06,13.44,3.16,19.84
	c0.64,2,0.1,4.19-1.39,5.67L20.11,43.28z"/>
</svg>
