<?xml version="1.0" encoding="utf-8"?>
<!-- Generator: Adobe Illustrator 26.0.3, SVG Export Plug-In . SVG Version: 6.00 Build 0)  -->
<svg version="1.1" id="Ebene_1" xmlns="http://www.w3.org/2000/svg" xmlns:xlink="http://www.w3.org/1999/xlink" x="0px" y="0px"
	 viewBox="0 0 100 100" style="enable-background:new 0 0 100 100;" xml:space="preserve">
<style type="text/css">
	.st0{fill:#808E9F;}
	.st1{clip-path:url(#SVGID_00000057830649442811318480000009301506113739327415_);}
	.st2{enable-background:new    ;}
	.st3{fill:#BBA989;}
	.st4{fill:#EF7D00;}
	.st5{fill:#238A4A;}
	.st6{fill:#313393;}
	.st7{fill:#9AC130;}
	.st8{fill:#0093DE;}
	.st9{fill:#9E1981;}
	.st10{fill:#A3AAA0;}
	.st11{fill:#E8E100;}
	.st12{fill:#689C89;}
	.st13{fill:#BFC6CF;}
	.st14{fill:#FFFFFF;}
</style>
<g id="Gruppe_703" transform="translate(-615 -332)">
	<path id="Pfad_413" class="st0" d="M665,332c-17.58,0-32.84,12.12-36.82,29.25c0,0.06-0.03,0.13-0.04,0.19
		c-0.1,0.48-0.2,0.96-0.28,1.45c-0.07,0.91-0.21,1.82-0.42,2.7l0,0c-0.06,0.49-0.1,0.97-0.13,1.46c-0.07,0.9-0.1,1.81-0.1,2.73
		c0,0.92,0.03,1.83,0.1,2.73l0.03,0.42c0.3,1.29,0.52,2.61,0.64,3.93c0.26,1.41,0.57,2.8,0.93,4.17l0,0
		c1.5,5.51,3.68,10.82,6.49,15.79c7.25,12.76,16.48,24.29,27.33,34.17c0.49,0.37,1.01,0.71,1.55,1.01h1.58
		c0.89-0.47,1.71-1.08,2.41-1.8c10.34-9.59,19.18-20.69,26.2-32.92c3.91-6.72,6.58-14.08,7.89-21.75c0.04-0.24,0.06-0.48,0.08-0.73
		c0.02-0.34,0.06-0.68,0.13-1.02c0.14-1.34,0.21-2.69,0.21-4.04C702.76,348.89,685.85,332,665,332z M665,390.07
		c-11.59-0.05-20.95-9.49-20.9-21.08c0.05-11.59,9.49-20.95,21.08-20.9c11.59,0.05,20.95,9.49,20.9,21.08c0,0.01,0,0.01,0,0.02
		c-0.1,11.57-9.52,20.9-21.09,20.88H665z"/>
</g>
</svg>
