<svg id="Capa_1" data-name="Capa 1" xmlns="http://www.w3.org/2000/svg" viewBox="0 0 50 50"><defs><style>.cls-1{fill:#368889;}</style></defs><title>vectores</title><path class="cls-1" d="M34.89,23.19a2.43,2.43,0,0,0,0-.66,6,6,0,0,0-2-3.91h0a2.26,2.26,0,0,0,2.46-1.72,2.15,2.15,0,0,0-1.44-2.58,9.7,9.7,0,0,0-2.31-.66,4.94,4.94,0,0,0,0-1.33,4.49,4.49,0,0,0-3.2-3.91V7.76a2,2,0,0,0-3.91,0h-.62l-.27-.59a1.65,1.65,0,0,0-3.09,1.14L21,10.1a7,7,0,0,0-.86,1.37A8.07,8.07,0,0,0,19,7.56a3,3,0,0,0-2.61-1.71h-2.5a1.27,1.27,0,0,0-1.18.74,1.43,1.43,0,0,0,0,1.36,6.7,6.7,0,0,1,1.57,3.68V20.3a11.16,11.16,0,0,0-2.46,8c0,5.74.7,6.8,1.36,7.07a.69.69,0,0,0,.35,0h0a9.63,9.63,0,0,0,.75,1.37v4.72a2.76,2.76,0,0,0,1.91,2.74,2.85,2.85,0,0,0,3.44-.94,2.87,2.87,0,0,0,2.42,1.09A2.82,2.82,0,0,0,24.35,43h1.09a22.82,22.82,0,0,1,5.63.78,14.6,14.6,0,0,0,3.36.51c1.52,0,5.11-.75,5.11-7.82A27.66,27.66,0,0,0,34.89,23.19Zm-1.21-.62a1.77,1.77,0,0,1,0,.46h0a.8.8,0,0,1-.19.32h-2.7v-.71h0l.24-.27h0L31.3,22h0v-.35h0v-.2a1,1,0,0,0,0-.35h0a.81.81,0,0,0,0-.31h.08v-.9h0v-1A4.56,4.56,0,0,1,33.68,22.57Zm-2.93-7.82h.36a8.68,8.68,0,0,1,2.61.59.91.91,0,0,1,.59.51,1.05,1.05,0,0,1,0,.78.91.91,0,0,1-1,.51,5.49,5.49,0,0,0-3.12.42H30v.2h0A.24.24,0,0,0,30,18v.67a.31.31,0,0,1,0,.19v.71h0A1.55,1.55,0,0,1,30,20h0v.39h0v.27h0l-.58.82h0l-.24.27H25.28L25,21.47h0a7.68,7.68,0,0,1-1.4-.47l-.28-.23h0a1.55,1.55,0,0,1,.28-.86h0v-.43h0A2.92,2.92,0,0,1,23.8,19h0A13.65,13.65,0,0,1,25,17.29h0l.51-.55h0l.55-.46h0l.46-.32h.2l.74-.58h3.32ZM20.21,18.66a12.65,12.65,0,0,1,2-8.09h0a.55.55,0,0,0,0-.58l-.47-2A.42.42,0,0,1,22,7.41h0a.42.42,0,0,1,.51.27l.59,1.41a.61.61,0,0,0,.47.35.9.9,0,0,0,.46,0,4.84,4.84,0,0,1,1.33-.35A.58.58,0,0,0,26,8.5V7.8a.67.67,0,0,1,.66-.63.63.63,0,0,1,.63.63h0v.9a.61.61,0,0,0,.47.62,3.36,3.36,0,0,1,2.73,2.93,4.94,4.94,0,0,1,0,1.33h0L29,13.66h-.63l-.86.27V14h-.66l-.39.2h0a1,1,0,0,1,1-1,.67.67,0,0,0,.63-.66.63.63,0,0,0-.63-.63h0c-1.91,0-2.5,2.15-2.58,3.59l-.23.24v.19l-.23.32-.2.19a3.31,3.31,0,0,0-.62.86h0a7.92,7.92,0,0,0-1.37,2.62h-.86a.81.81,0,0,0-.31,0l-.82-.31h0v-.94ZM13.92,7.13h2.5A1.84,1.84,0,0,1,17.94,8a7.6,7.6,0,0,1,1,3.64v6.64l-.9.35a3.65,3.65,0,0,0-2.27.59V11.63A8.45,8.45,0,0,0,13.92,7.13Zm.62,26.37h0a.62.62,0,0,1-.58.55h-.28a16.13,16.13,0,0,1-.54-5.74A9.94,9.94,0,0,1,15.48,21h0a3,3,0,0,1,2.42-1.09h0A24.68,24.68,0,0,0,20.52,21h.58a5.83,5.83,0,0,1,1.14.51h0l.27.2h0a.45.45,0,0,1,0,.23c0,2.23-3.59,5.16-5.51,6.72l-1.25,1.8v.27h0a5.43,5.43,0,0,0-.86,2A5.94,5.94,0,0,1,14.54,33.5Zm4.38,7.82a1.59,1.59,0,0,1-3.17.15V38.54A11.18,11.18,0,0,0,18.92,41v.32Zm2.89,1.6a1.64,1.64,0,0,1-1.6-1.29,16.26,16.26,0,0,0,2.61.94,1.56,1.56,0,0,1-1,.5ZM29.19,42a22.29,22.29,0,0,0-3.91-.35H24a14.32,14.32,0,0,1-4.15-1.49l-.5-.27h-.24l-.39-.27-.31-.24a1.31,1.31,0,0,1-.35-.27l-.43-.43-.47-.43-.31-.31-.36-.39-.19-.24a4.76,4.76,0,0,1-.55-.78,11.37,11.37,0,0,1-.82-1.44h0l.24-.2h0V34.4h0v-.23h.58a2.53,2.53,0,0,0,0-.55,5.38,5.38,0,0,1,.51-1.33l.27-.35,1.25-1.09.43-.35a11.59,11.59,0,0,1,.43,2.93,3.41,3.41,0,0,0,1.64,3.12h.28a.61.61,0,0,0,.62-.51.57.57,0,0,0-.31-.7,2.07,2.07,0,0,1-.62-2.15,6.53,6.53,0,0,0,1.25,0,.62.62,0,0,0,.62-.62.66.66,0,0,0-.62-.67,3.72,3.72,0,0,1-1.33,0h0A15.77,15.77,0,0,0,19.66,29h0L20,28.7h.2l.31-.31h0l.27-.32H21l.27-.27v-.2h0a3.07,3.07,0,0,0,.62,1.1,2.4,2.4,0,0,1,.47,1.48.63.63,0,0,0,1.18.08.66.66,0,0,0,.66-.62h0a2.43,2.43,0,0,0,.66,0,.71.71,0,0,0,.67-.67.64.64,0,0,0,0-.43.76.76,0,0,0-.47,0,5.16,5.16,0,0,1-1.49-1.09h0a2.59,2.59,0,0,1-.82-1.68h0v-.24l.36-.15v-.51a.42.42,0,0,0,0-.27,1,1,0,0,0,.43-.39,1,1,0,0,0,0-.24V23.7a.66.66,0,0,1,0-.28v-.74H27.9a1,1,0,0,0,0,.35h2.7a21.81,21.81,0,0,0-.78,7.23v.43c0,.12-.63,1.49-1.33,1.49a.64.64,0,0,0,0,1.28h0a2.47,2.47,0,0,0,1.91-1.09,7.37,7.37,0,0,0,.43.78,4.32,4.32,0,0,1,.86,2.23A6.45,6.45,0,0,1,30.4,39a7,7,0,0,0-1.21,3.13Zm5.12.94a13.69,13.69,0,0,1-2.93-.31l-.78-.2a5.15,5.15,0,0,1,.78-2.73,8.59,8.59,0,0,0,1.37-3.09,6.53,6.53,0,0,1,1.4,1.52,2.27,2.27,0,0,1-.43,1.33.64.64,0,0,0,0,.63.7.7,0,0,0,.47.43.64.64,0,0,0,.63,0,2.57,2.57,0,0,0,.47-1,1.3,1.3,0,0,0,.89.39.67.67,0,0,0,.67-.58.63.63,0,0,0-.59-.67h0a1.94,1.94,0,0,1-.78-.94A8.44,8.44,0,0,0,33,35a6.32,6.32,0,0,0-1-2.54,4.54,4.54,0,0,1-.86-2.23,5.86,5.86,0,0,1,.31-1,4.68,4.68,0,0,0,2.93,2.43c.78,0,1.33,1.21,1.48,1.56a.67.67,0,0,0,.92.22.66.66,0,0,0,.29-.73,4.09,4.09,0,0,0-2.38-2.3c-2.15-.51-2.73-3.32-2.73-3.36h0a17.09,17.09,0,0,1,.54-1.76,4.7,4.7,0,0,0,1.06,0h0a2.1,2.1,0,0,0,.7-.43A27,27,0,0,1,38.1,37.14c.08,5.11-2.35,5.93-3.79,5.93Z"/></svg>