<svg id="Capa_1" data-name="Capa 1" xmlns="http://www.w3.org/2000/svg" viewBox="0 0 50 50"><defs><style>.cls-1{fill:#368889;}</style></defs><title>vectores</title><path class="cls-1" d="M14.19,43.58a1,1,0,0,1-1-1V2.38a1,1,0,0,1,1-1h0a1,1,0,0,1,1.05,1h0V42.54a1,1,0,0,1-1.05,1Z"/><path class="cls-1" d="M44.21,8H8.29a1,1,0,0,1-1-1V7a1.05,1.05,0,0,1,1-.91H44.21a1.06,1.06,0,0,1,1.1.91,1,1,0,0,1-1,1Z"/><path class="cls-1" d="M31.51,33.26h-6A4.76,4.76,0,0,1,20.8,28.5V18.8A4.76,4.76,0,0,1,25.56,14h6a4.76,4.76,0,0,1,4.76,4.76v9.85A4.76,4.76,0,0,1,31.51,33.26Zm-6-17A2.52,2.52,0,0,0,23,18.8v9.85a2.56,2.56,0,0,0,2.52,2.56h6a2.57,2.57,0,0,0,2.57-2.56V18.8a2.57,2.57,0,0,0-2.57-2.52Z"/><path class="cls-1" d="M31,12.66H26.28a1,1,0,0,1-1-1v-.05a1,1,0,0,1,1-.76H31a1,1,0,0,1,1,1v0A1.05,1.05,0,0,1,31,12.66Z"/><path class="cls-1" d="M31,36.31H26.28a1,1,0,0,1-1-1h0a1,1,0,0,1,.95-1.05H31a1,1,0,0,1,1,1.05,1,1,0,0,1-1,1Z"/><path class="cls-1" d="M28.61,12.37a.76.76,0,0,1-.76-.76V6.85a.76.76,0,0,1,1.52,0v4.76a.76.76,0,0,1-.76.76Z"/><path class="cls-1" d="M25.23,47.63a1,1,0,0,1-1.05-1.05h0V42.2a2.9,2.9,0,0,1,2.91-2.8h.42V35.31a1,1,0,0,1,1-1.05,1,1,0,0,1,1,1v4.8a1,1,0,0,1-.95,1H27.09a.8.8,0,0,0-.86.75.76.76,0,0,0,.05.34v4.38A1,1,0,0,1,25.23,47.63Z"/><path class="cls-1" d="M35.08,22.84H22a1,1,0,0,1-1-1h0a1,1,0,0,1,1-1H35.08a1,1,0,0,1,1,1h0a1,1,0,0,1-1,1Z"/><path class="cls-1" d="M22.28,26a.94.94,0,0,1-.76-.86.91.91,0,0,1,.85-.95h2.19a1,1,0,0,1,1,.91,1,1,0,0,1-.91,1H22.28Z"/><path class="cls-1" d="M24.52,29.07H22a1,1,0,0,1-1-1,1,1,0,0,1,1-1h2.53a1,1,0,0,1,1,1h0A1,1,0,0,1,24.52,29.07Z"/></svg>