<svg id="Capa_1" data-name="Capa 1" xmlns="http://www.w3.org/2000/svg" viewBox="0 0 50 50"><defs><style>.cls-1{fill:#368889;}</style></defs><title>vectores</title><path class="cls-1" d="M22.28,28.78V26.42H24.6a2.61,2.61,0,0,0,2.6-2.61V20.48a2.65,2.65,0,0,0-2.6-2.65H22.28V15.52a2.65,2.65,0,0,0-2.65-2.65H16.34a2.64,2.64,0,0,0-2.6,2.65v2.36H11.42a2.6,2.6,0,0,0-2.65,2.56v3.37a2.65,2.65,0,0,0,2.65,2.61h2.32v2.36a2.64,2.64,0,0,0,2.6,2.64h3.29A2.68,2.68,0,0,0,22.28,28.78Zm-.86-4.23a.92.92,0,0,0-1.05.79v3.31a.74.74,0,0,1-.69.78H16.34a.74.74,0,0,1-.73-.74V25.36a.94.94,0,0,0-.94-.94H11.42a.72.72,0,0,1-.73-.73V20.48a.72.72,0,0,1,.73-.73h3.25a.94.94,0,0,0,.94-.94h0V15.52a.74.74,0,0,1,.73-.74h3.29a.74.74,0,0,1,.74.74v3.29a.92.92,0,0,0,.92.94h3.39a.73.73,0,0,1,.81.64v3.42a.74.74,0,0,1-.73.74Z"/><path class="cls-1" d="M5.72,5A4.63,4.63,0,0,0,1.09,9.66v9.39A.94.94,0,0,0,2,20H2a.94.94,0,0,0,1-.89V9.66A2.77,2.77,0,0,1,5.72,6.89H30.13a2.77,2.77,0,0,1,2.72,2.77v27.9H16a4.38,4.38,0,0,0-4.31-3.7,4.47,4.47,0,0,0-4.35,3.7H5.72A2.76,2.76,0,0,1,3,34.84V27.56A.94.94,0,0,0,2,26.62H2a.94.94,0,0,0-.93.94v7.07a4.63,4.63,0,0,0,4.63,4.64H7.31a4.48,4.48,0,0,0,4.35,3.5A4.39,4.39,0,0,0,16,39.27H36.84a4.47,4.47,0,0,0,8.7,0h2.89a1,1,0,0,0,1-1V29.18a.86.86,0,0,0,0-.45l-2-3.37a1,1,0,0,0-.85-.49H45.26L42.7,17.22a4.08,4.08,0,0,0-3.26-2.68V13.16a3.53,3.53,0,0,0-3.5-3.5h-1A4.63,4.63,0,0,0,30.29,5Zm8.5,33.27a2.56,2.56,0,0,1-2.56,2.57h0a2.57,2.57,0,1,1,2.56-2.57ZM37.69,14.5h-2.8V11.61h1a1.53,1.53,0,0,1,1.75,1.55Zm5.74,10.37H34.89v-8.5H39a2.12,2.12,0,0,1,2,1.46Zm4.06,12.49h-2a4.41,4.41,0,0,0-8.66.2h-2V26.74H46.07l1.42,2.69v1.7H45.83a.94.94,0,1,0,0,1.88h1.75Zm-8.86.93a2.56,2.56,0,1,1,2.56,2.57A2.56,2.56,0,0,1,38.63,38.29Z"/><path class="cls-1" d="M1.09,22.8a1,1,0,0,1,1.36-.2,1,1,0,0,1,.39.64.94.94,0,0,1-.57.94.93.93,0,0,1-1.06,0,.93.93,0,0,1,0-1.18Z"/></svg>