<svg id="Capa_1" data-name="Capa 1" xmlns="http://www.w3.org/2000/svg" viewBox="0 0 50 50"><defs><style>.cls-1{fill:#368889;}</style></defs><title>vectores</title><path class="cls-1" d="M3.63,7H8.42L10,8.56l-1.9,1.9a3.13,3.13,0,0,0,0,4.38s0,0,0,.11l.91.91-1,1a.9.9,0,0,0-.19.53.61.61,0,0,0,.31.45l1.6,1a2.29,2.29,0,0,0,1.37.42,2.63,2.63,0,0,0,1.56-.42l.38.38a1.66,1.66,0,0,0,1.06.42,1.57,1.57,0,0,0,1.07-.42l.87-.88a1.46,1.46,0,0,0,0-2.13l-.38-.38.31-.27.38.38a1.46,1.46,0,0,0,1.07.42,1.45,1.45,0,0,0,1-.42l.92-.91a1.49,1.49,0,0,0,0-2.09L19,12.48l.26-.31.38.42a1.56,1.56,0,0,0,2.13,0l.88-.91a1.48,1.48,0,0,0,0-2.1l-.38-.38a2.51,2.51,0,0,0,0-3l-1-1.75a.54.54,0,0,0-.46-.26.59.59,0,0,0-.53.19l-.95,1-.92-1a3.13,3.13,0,0,0-2.16-.88,3,3,0,0,0-2.14.88L10.94,7.64,9.11,5.89a.61.61,0,0,0-.46,0h-5a.65.65,0,0,0-.65.5A.69.69,0,0,0,3.63,7Zm11.42,9.9a.2.2,0,0,1,0,.23h0l-.65.91m-.27,0-.38-.38,1.14-1.18Zm4.19-4.19L17.56,15m-.27,0-.38-.38,1.3-1.33Zm4.3-4.34-.87.91m-.27,0-.26-.38L21.33,10l.38.38Zm.19-5.63.65,1a1.14,1.14,0,0,1,0,1.49L12,17.5a1.13,1.13,0,0,1-1.48,0l-1-.65Zm-5.59-.57a1.74,1.74,0,0,1,2.43,0l.95.95L9.91,15,9,13.81a1.64,1.64,0,0,1-.08-2.32L9,11.41Z"/><path class="cls-1" d="M30.54,9.16H29a.65.65,0,1,0,0,1.3h1.52a.65.65,0,1,0,0-1.3Z"/><path class="cls-1" d="M30.54,11.56H29a.65.65,0,0,0-.65.65h0a.69.69,0,0,0,.65.65h1.52a.69.69,0,0,0,.65-.65.65.65,0,0,0-.65-.65Z"/><path class="cls-1" d="M30.54,13.92H29a.69.69,0,0,0-.65.65.65.65,0,0,0,.65.65h1.52a.65.65,0,0,0,.65-.65h0A.69.69,0,0,0,30.54,13.92Z"/><path class="cls-1" d="M30.54,16.32H29a.65.65,0,1,0,0,1.29h1.52a.65.65,0,1,0,0-1.29Z"/><path class="cls-1" d="M40,13.66a.64.64,0,0,0-.69-.19.71.71,0,0,0-.45.49l-.31,1.94L36.9,12.32a.59.59,0,0,0-.5-.38.74.74,0,0,0-.61.23l-1.33,1.75H32.9a.65.65,0,0,0-.65.65h0a.64.64,0,0,0,.61.68H34.8a.78.78,0,0,0,.54-.3l.83-1.14,2.1,4.49a.57.57,0,0,0,.57.38h0a.65.65,0,0,0,.57-.53l.45-2.71.27.27a.57.57,0,0,0,.57.23.77.77,0,0,0,.5-.34l.64-1.26v.27a.65.65,0,0,0,.65.61h1.3a.68.68,0,0,0,.64-.69.69.69,0,0,0-.64-.65h-.73l-.19-1.78a.61.61,0,0,0-.53-.58.67.67,0,0,0-.69.35L40.4,14.15Z"/><path class="cls-1" d="M44.85,27.36H23.46a.69.69,0,0,0-.65.65.65.65,0,0,0,.65.64H44.85A1.11,1.11,0,0,1,46,29.76v1.06H4.27v-1a1.15,1.15,0,0,1,1.11-1.15H20.87a.65.65,0,0,0,.65-.64h0a.69.69,0,0,0-.65-.65H12.12v-1a1.79,1.79,0,0,0-1.75-1.75H7a1.79,1.79,0,0,0-1.75,1.75v.87A2.37,2.37,0,0,0,3,29.71v1.76a.69.69,0,0,0,.65.65H5.84v.68A2.2,2.2,0,0,0,8,35h3.81a.65.65,0,0,0,.65-.65h0a.69.69,0,0,0-.65-.64H8a.88.88,0,0,1-.91-.84v-.72H43.21v.68a.87.87,0,0,1-.87.88H14.4a.65.65,0,0,0-.65.64h0a.61.61,0,0,0,.57.65h4.84L22,36.72l-2.89,1.07a.61.61,0,0,0-.42.61v1.94H13.22A1.67,1.67,0,0,0,11.55,42v1.83a2.1,2.1,0,1,0,1.29,0V42a.36.36,0,0,1,.3-.39H35.83a.39.39,0,0,1,.38.39h0V43.8a2.1,2.1,0,1,0,1.29,0V42a1.67,1.67,0,0,0-1.67-1.68H30L24.79,37,30.27,35H42.34a2.17,2.17,0,0,0,2.17-2.17v-.68h2.21a.65.65,0,0,0,.64-.65h0V29.76A2.39,2.39,0,0,0,45,27.36Zm-38.33-1A.47.47,0,0,1,7,25.91h3.39a.46.46,0,0,1,.45.46v.84H6.52Zm5.67,20.1a.8.8,0,0,1,0-1.6h0a.8.8,0,0,1,.84.76v0a.84.84,0,0,1-.72.94h-.12Zm24.67,0a.8.8,0,0,1,0-1.6h0a.8.8,0,0,1,.8.8h0a.8.8,0,0,1-.64.93.44.44,0,0,1-.16,0ZM27.53,40.3H19.92V38.82l3.35-1Zm-4.11-4.15L21.59,35h4.95Z"/><path class="cls-1" d="M45.8,6.8H42.57a.69.69,0,0,0-.65.65.69.69,0,0,0,.65.65H45.8a.27.27,0,0,1,.27.26v12a.27.27,0,0,1-.27.26H27.38a.29.29,0,0,1-.3-.26V8.4a.33.33,0,0,1,.3-.3H40a.66.66,0,0,0,.66-.64s0-.08,0-.12A.69.69,0,0,0,40,6.8H27.38a1.6,1.6,0,0,0-1.56,1.6v12A1.59,1.59,0,0,0,27.42,22H45.84a1.56,1.56,0,0,0,1.56-1.56V8.4a1.57,1.57,0,0,0-1.52-1.6Z"/></svg>