<svg id="Capa_1" data-name="Capa 1" xmlns="http://www.w3.org/2000/svg" viewBox="0 0 50 50"><defs><style>.cls-1{fill:#368889;}</style></defs><title>vectores</title><path class="cls-1" d="M41.83,43.14h0l-9.37-2.43-1.31-4.16.88.26a22.19,22.19,0,0,0,9.83.2.69.69,0,0,0,.42-.26.6.6,0,0,0,0-.49.65.65,0,0,0-.22-.3.72.72,0,0,0-.5,0,22.27,22.27,0,0,1-8.22,0h-.75l.46-.62a9.86,9.86,0,0,0,1.77-4.85l.32-4.36h.76a3.34,3.34,0,0,0,1.34-6.55h0l-.49-.19.23-.46a3.87,3.87,0,0,0-.59-4.59h0V14a3.68,3.68,0,0,0-3.57-3.77h-.43V10a3.67,3.67,0,0,0-4-2.13h-.26l-.26-.16a3.7,3.7,0,0,0-5.23-.18l-.18.18v.19h-.32A3.68,3.68,0,0,0,18.27,10v.26h-.43A3.75,3.75,0,0,0,14.27,14v.23h0a3.86,3.86,0,0,0-.59,4.58l.2.46-.59.36a3.28,3.28,0,0,0-2.06,3.28,3.27,3.27,0,0,0,3.26,3.29l.28,0h.75l.36,4.1a9.4,9.4,0,0,0,3.28,6.55l.26.23L18,40.68,8.67,43.14a.63.63,0,0,0-.47.74.08.08,0,0,1,0,0,.61.61,0,0,0,.3.4.82.82,0,0,0,.49,0l9.53-2.46L21.81,43a10.23,10.23,0,0,0,7.11,0l3.27-1.15,9.54,2.46a.68.68,0,0,0,.78-.46.65.65,0,0,0-.58-.72ZM38,22.86A2.1,2.1,0,0,1,35.9,25h-.63l.33-4.23h.49A2,2,0,0,1,38,22.86ZM14.77,24.79a2.09,2.09,0,0,1-2.23-1.93,2.07,2.07,0,0,1,1.93-2.07H15L15.29,25Zm1.08-5.67h-.3l-.23-.23a3,3,0,0,1-.82-2.09,2.34,2.34,0,0,1,1-1.94.62.62,0,0,0,.26-.65,2.39,2.39,0,0,1,1.89-2.8,2.36,2.36,0,0,1,1,0,.6.6,0,0,0,.49,0,.65.65,0,0,0,.26-.42,2.33,2.33,0,0,1,3.05-1.8.63.63,0,0,0,.79-.27,2.4,2.4,0,0,1,2.06-1.14,2.32,2.32,0,0,1,2,1.14.63.63,0,0,0,.79.27,2.42,2.42,0,0,1,2,.19A2.39,2.39,0,0,1,31.28,11a.51.51,0,0,0,.75.43,2.44,2.44,0,0,1,2.2.62,2.32,2.32,0,0,1,.68,2.16.78.78,0,0,0,.27.66,2.36,2.36,0,0,1,1,1.93,3.08,3.08,0,0,1-.82,2.1l-.29.26-.33-.2h0l-.33-.1h0a17.4,17.4,0,0,0-1.77-.75h-.42v-.43a6.45,6.45,0,0,0,.29-1.8.62.62,0,0,0-.59-.65h0a.66.66,0,0,0-.66.65,5.23,5.23,0,0,1-.09,1.25v.42h-.46c-.43,0-1.15-.26-1.84-.36h-.49v-.49a8.08,8.08,0,0,0,.17-1.47.66.66,0,0,0-1.32,0h0a6.65,6.65,0,0,1,0,1.41v.42h-3.5v-.42a8.3,8.3,0,0,1,0-1.41.66.66,0,1,0-1.31,0h0a11.53,11.53,0,0,0,0,1.44v.49h-.49c-.62.09-1.23.21-1.84.36h-.46v-.46a5.38,5.38,0,0,1-.26-1.44.62.62,0,0,0-.62-.62h0a.59.59,0,0,0-.66.51v.14a7.15,7.15,0,0,0,.3,1.84v.42l-.3.17A11.17,11.17,0,0,0,16,19Zm1.14,11-.78-9.83h.26l1-.66a20.72,20.72,0,0,1,8.42-1.41,19.12,19.12,0,0,1,8.13,2h.26L33.5,30a8,8,0,0,1-2.06,4.85l-.29.33h-.33a10.14,10.14,0,0,1-1.93-1.08l-.5-.36.46-.43a5.54,5.54,0,0,0,1.87-4.13.66.66,0,0,0-.49-.62A4.22,4.22,0,0,1,27.31,26L27,25.32a.62.62,0,0,0-.59-.43H24a.65.65,0,0,0-.59.39h0l-.26.69a4.31,4.31,0,0,1-2.92,2.56.68.68,0,0,0-.52.62,5.57,5.57,0,0,0,5.71,5.42A5.35,5.35,0,0,0,27,34.32h.26l.23.2a9.06,9.06,0,0,0,1.94,1.31l.82.43-.82.46a8.68,8.68,0,0,1-4.13,1.08,8.08,8.08,0,0,1-3.93-1.08A8.31,8.31,0,0,1,17,30.07Zm8.19,1.6a5.79,5.79,0,0,0,.49.79.55.55,0,0,1,0,.36v.46h-.39a4.23,4.23,0,0,1-4-3.31v-.56a5.6,5.6,0,0,0,2.91-3l.36-.27h1.58v.33a5.64,5.64,0,0,0,2.94,3h.4v.39a4,4,0,0,1-1.64,2.52l-.36.3-.33-.36a9.8,9.8,0,0,1-.85-1.28.69.69,0,0,0-.75-.33.75.75,0,0,0-.43.39A.68.68,0,0,0,25.18,31.67Zm3.28,10.19a8.92,8.92,0,0,1-3.28.52,9.11,9.11,0,0,1-3.27-.52l-2.75-1,1-3.27.5.26a9.35,9.35,0,0,0,8.64,0l.53-.26,1.05,3.27Z"/><path class="cls-1" d="M20.4,22.43h.75l1.22-.26a.65.65,0,0,0,.49-.78.67.67,0,0,0-.49-.5h0l-1.84.4A.65.65,0,0,0,20,22,.63.63,0,0,0,20.4,22.43Z"/><path class="cls-1" d="M28.13,22l1.05.19.92.2h0a.66.66,0,0,0,.62-.52.72.72,0,0,0,0-.5.67.67,0,0,0-.39-.26l-1.84-.39a.69.69,0,0,0-.49,0,.62.62,0,0,0-.26.39h0a.72.72,0,0,0,0,.46A.67.67,0,0,0,28.13,22Z"/></svg>